<svg xmlns="http://www.w3.org/2000/svg" version="1.1" xmlns:xlink="http://www.w3.org/1999/xlink" xmlns:svgjs="http://svgjs.dev/svgjs" width="1500" height="284" viewBox="0 0 1500 284"><g transform="matrix(1,0,0,1,-0.9090909090909918,-1.1668762753890292)"><svg viewBox="0 0 396 75" data-background-color="#ffffff" preserveAspectRatio="xMidYMid meet" height="284" width="1500" xmlns="http://www.w3.org/2000/svg" xmlns:xlink="http://www.w3.org/1999/xlink"><g id="tight-bounds" transform="matrix(1,0,0,1,0.2400000000000091,0.30815394596541523)"><svg viewBox="0 0 395.52 74.38369210806916" height="74.38369210806916" width="395.52"><g><svg viewBox="0 0 507.20131740208467 95.38710211985165" height="74.38369210806916" width="395.52"><g transform="matrix(1,0,0,1,0,13.183022073004103)"><svg viewBox="0 0 395.52 69.02105797384344" height="69.02105797384344" width="395.52"><g id="textblocktransform"><svg viewBox="0 0 395.52 69.02105797384344" height="69.02105797384344" width="395.52" id="textblock"><g><svg viewBox="0 0 395.52 69.02105797384344" height="69.02105797384344" width="395.52"><g transform="matrix(1,0,0,1,0,0)"><svg width="395.52" viewBox="4.6 -35 254.58 44.7" height="69.02105797384344" data-palette-color="#3bc2fc"><g class="wordmark-text-0" data-fill-palette-color="primary" id="text-0"><path d="M4.6 0L4.6-35 10.4-35 30.65-7.25 29.15-6.75 29.15-35 34.95-35 34.95 0 29.15 0 8.95-27.7 10.5-28.2 10.5 0 4.6 0ZM55.25-26.75L55.25-26.75Q59.35-26.75 62.47-25.05 65.6-23.35 67.35-20.33 69.1-17.3 69.1-13.3L69.1-13.3Q69.1-9.3 67.35-6.25 65.6-3.2 62.47-1.5 59.35 0.2 55.25 0.2L55.25 0.2Q51.15 0.2 48-1.5 44.85-3.2 43.1-6.25 41.35-9.3 41.35-13.3L41.35-13.3Q41.35-17.3 43.1-20.33 44.85-23.35 48-25.05 51.15-26.75 55.25-26.75ZM55.25-22.1L55.25-22.1Q52.85-22.1 51-20.98 49.15-19.85 48.12-17.85 47.1-15.85 47.1-13.25L47.1-13.25Q47.1-10.6 48.12-8.6 49.15-6.6 51-5.48 52.85-4.35 55.25-4.35L55.25-4.35Q57.65-4.35 59.47-5.48 61.3-6.6 62.32-8.6 63.35-10.6 63.35-13.25L63.35-13.25Q63.35-15.85 62.32-17.85 61.3-19.85 59.47-20.98 57.65-22.1 55.25-22.1ZM81.84-32.85L81.84-8.4Q81.84-6.25 82.59-5.48 83.34-4.7 84.69-4.7L84.69-4.7Q85.59-4.7 86.57-5 87.55-5.3 88.69-5.9L88.69-5.9 90.14-1.75Q88.59-0.8 86.94-0.28 85.3 0.25 83.59 0.25L83.59 0.25Q81.59 0.25 79.89-0.53 78.19-1.3 77.17-3 76.14-4.7 76.14-7.4L76.14-7.4 76.14-32.85 81.84-32.85ZM72.39-21.5L72.39-25.6 89.69-25.6 89.69-21.5 72.39-21.5ZM97.59-15.2L113.84-15.2Q113.74-17.45 112.82-19.03 111.89-20.6 110.24-21.48 108.59-22.35 106.44-22.35L106.44-22.35Q104.04-22.35 102.27-21.25 100.49-20.15 99.49-18.18 98.49-16.2 98.49-13.55L98.49-13.55Q98.49-10.7 99.57-8.6 100.64-6.5 102.57-5.35 104.49-4.2 106.99-4.2L106.99-4.2Q111.44-4.2 114.49-7.35L114.49-7.35 117.54-4.3Q115.59-2.15 112.79-0.98 109.99 0.2 106.54 0.2L106.54 0.2Q102.44 0.2 99.39-1.5 96.34-3.2 94.64-6.23 92.94-9.25 92.94-13.25L92.94-13.25Q92.94-17.25 94.64-20.28 96.34-23.3 99.39-25 102.44-26.7 106.39-26.75L106.39-26.75Q111.09-26.75 113.94-24.83 116.79-22.9 117.99-19.4 119.19-15.9 118.84-11.1L118.84-11.1 97.59-11.1 97.59-15.2ZM142.09-24.15L139.99-20.1Q138.24-21.15 136.16-21.78 134.09-22.4 132.34-22.4L132.34-22.4Q130.64-22.4 129.54-21.75 128.44-21.1 128.44-19.6L128.44-19.6Q128.44-18.35 129.47-17.63 130.49-16.9 132.09-16.4 133.69-15.9 135.49-15.35 137.29-14.8 138.91-13.93 140.54-13.05 141.54-11.55 142.54-10.05 142.54-7.6L142.54-7.6Q142.54-4.9 141.12-3.18 139.69-1.45 137.37-0.63 135.04 0.2 132.34 0.2L132.34 0.2Q129.44 0.2 126.54-0.75 123.64-1.7 121.64-3.5L121.64-3.5 123.69-7.4Q125.44-5.85 127.94-4.98 130.44-4.1 132.59-4.1L132.59-4.1Q133.84-4.1 134.81-4.42 135.79-4.75 136.37-5.4 136.94-6.05 136.94-7.1L136.94-7.1Q136.94-8.5 135.94-9.3 134.94-10.1 133.34-10.63 131.74-11.15 129.94-11.68 128.14-12.2 126.56-13.05 124.99-13.9 123.99-15.35 122.99-16.8 122.99-19.2L122.99-19.2Q122.99-21.9 124.39-23.58 125.79-25.25 128.02-26.03 130.24-26.8 132.79-26.8L132.79-26.8Q135.29-26.8 137.79-26.1 140.29-25.4 142.09-24.15L142.09-24.15Z" fill="#3bc2fc" data-fill-palette-color="primary"></path><path d="M156.09 0L171.54-35 177.59-35 192.89 0 186.59 0 174.39-29.05 162.24 0 156.09 0ZM163.79-8.1L163.79-13.1 184.74-13.1 184.74-8.1 163.79-8.1ZM212.49-26.75L212.49-26.75Q216.29-26.75 219.13-25.05 221.99-23.35 223.59-20.3 225.19-17.25 225.19-13.2L225.19-13.2Q225.19-9.25 223.61-6.23 222.04-3.2 219.21-1.5 216.38 0.2 212.59 0.2L212.59 0.2Q208.94 0.2 206.36-1.4 203.79-3 202.44-6.03 201.09-9.05 201.09-13.2L201.09-13.2Q201.09-17.5 202.44-20.53 203.79-23.55 206.36-25.15 208.94-26.75 212.49-26.75ZM211.29-22.2L211.29-22.2Q208.94-22.2 207.09-21.05 205.24-19.9 204.21-17.93 203.19-15.95 203.19-13.35L203.19-13.35Q203.19-10.75 204.21-8.72 205.24-6.7 207.09-5.58 208.94-4.45 211.29-4.45L211.29-4.45Q213.69-4.45 215.51-5.6 217.34-6.75 218.36-8.75 219.38-10.75 219.38-13.35L219.38-13.35Q219.38-15.9 218.36-17.9 217.34-19.9 215.51-21.05 213.69-22.2 211.29-22.2ZM197.44 9.7L197.44-26.55 203.19-26.55 203.19 9.7 197.44 9.7ZM246.48-26.75L246.48-26.75Q250.28-26.75 253.13-25.05 255.98-23.35 257.58-20.3 259.18-17.25 259.18-13.2L259.18-13.2Q259.18-9.25 257.61-6.23 256.03-3.2 253.21-1.5 250.38 0.2 246.58 0.2L246.58 0.2Q242.93 0.2 240.36-1.4 237.78-3 236.43-6.03 235.08-9.05 235.08-13.2L235.08-13.2Q235.08-17.5 236.43-20.53 237.78-23.55 240.36-25.15 242.93-26.75 246.48-26.75ZM245.28-22.2L245.28-22.2Q242.93-22.2 241.08-21.05 239.23-19.9 238.21-17.93 237.18-15.95 237.18-13.35L237.18-13.35Q237.18-10.75 238.21-8.72 239.23-6.7 241.08-5.58 242.93-4.45 245.28-4.45L245.28-4.45Q247.68-4.45 249.51-5.6 251.33-6.75 252.36-8.75 253.38-10.75 253.38-13.35L253.38-13.35Q253.38-15.9 252.36-17.9 251.33-19.9 249.51-21.05 247.68-22.2 245.28-22.2ZM231.43 9.7L231.43-26.55 237.18-26.55 237.18 9.7 231.43 9.7Z" fill="#4b91f1" data-fill-palette-color="secondary"></path></g></svg></g></svg></g></svg></g></svg></g><g transform="matrix(1,0,0,1,411.814215282233,0)"><svg viewBox="0 0 95.38710211985165 95.38710211985165" height="95.38710211985165" width="95.38710211985165"><g data-palette-color="#4b91f1"><rect width="26.072474579426114" height="95.38710211985165" fill="#4b91f1" stroke="transparent" data-fill-palette-color="accent" x="0" fill-opacity="1"></rect><rect width="26.072474579426114" height="95.38710211985165" fill="#4b91f1" stroke="transparent" data-fill-palette-color="accent" x="31.79570070661721" fill-opacity="0.75"></rect><rect width="26.072474579426114" height="95.38710211985165" fill="#4b91f1" stroke="transparent" data-fill-palette-color="accent" x="63.59140141323442" fill-opacity="0.5"></rect></g></svg></g></svg></g><defs></defs></svg><rect width="395.52" height="74.38369210806916" fill="none" stroke="none" visibility="hidden"></rect></g></svg></g></svg>